<svg width="41" height="40" viewBox="0 0 41 40" fill="none" xmlns="http://www.w3.org/2000/svg">
<path d="M20.5001 11.0247C15.5245 11.0247 11.4855 15.0636 11.4855 20.0392C11.4855 25.0147 15.5245 29.0537 20.5001 29.0537C25.4756 29.0537 29.5146 25.0147 29.5146 20.0392C29.4951 15.0441 25.4561 11.0247 20.5001 11.0247Z" fill="#3880FF"/>
<path d="M33.417 11.8246C35.6907 11.8246 37.534 9.98137 37.534 7.7076C37.534 5.43383 35.6907 3.59058 33.417 3.59058C31.1432 3.59058 29.2999 5.43383 29.2999 7.7076C29.2999 9.98137 31.1432 11.8246 33.417 11.8246Z" fill="#3880FF"/>
<path d="M38.4705 11.8245L38.3144 11.4538L38.0413 11.7855C37.3779 12.5464 36.4998 13.1318 35.5632 13.483L35.2901 13.6001L35.4071 13.8732C36.2462 15.844 36.6364 17.9317 36.6364 20.0585C36.6364 28.956 29.3975 36.2144 20.4805 36.2144C11.5635 36.2144 4.34409 28.956 4.34409 20.0585C4.34409 11.1611 11.583 3.90263 20.5 3.90263C22.9195 3.90263 25.2219 4.44896 27.4072 5.46358L27.6414 5.58065L27.7585 5.30749C28.1682 4.37091 28.7731 3.55141 29.5926 2.90751L29.9243 2.63435L29.5536 2.43923C26.7243 0.995342 23.7 0.234375 20.5 0.234375C9.61232 0.234375 0.734375 9.11232 0.734375 20C0.734375 30.8877 9.61232 39.7656 20.5 39.7656C31.3877 39.7656 40.2656 30.8877 40.2656 20C40.2461 17.1708 39.6412 14.4391 38.4705 11.8245Z" fill="#3880FF"/>
</svg>
