<svg width="39" height="40" viewBox="0 0 39 40" fill="none" xmlns="http://www.w3.org/2000/svg">
<path d="M6.11398 8.97363L0.140657 14.9432L9.3525 24.1651L0.09375 33.434L6.04839 39.4062L15.3258 30.1347L24.553 39.3399L30.5263 33.3704L6.11398 8.97363Z" fill="#53B9FF"/>
<path d="M21.4392 23.9695L15.5305 30.0419L24.6334 39.4063L30.5263 33.3337L21.4392 23.9695Z" fill="#119EFF"/>
<path d="M21.2642 23.9695L15.5305 30.0271L17.7377 32.3495L21.2642 23.9695Z" fill="black" fill-opacity="0.2"/>
<path d="M29.6346 15.8258L38.9062 6.54839L32.9341 0.59375L23.6653 9.85251L14.4432 0.640658L8.47369 6.614L32.8705 31.0263L38.8401 25.0529L29.6346 15.8258Z" fill="#53B9FF"/>
<path d="M17.561 16.0305L23.4694 9.95825L14.3663 0.59375L8.47369 6.66608L17.561 16.0305Z" fill="#119EFF"/>
<path d="M17.7358 16.0306L23.4694 9.97338L21.2617 7.65063L17.7358 16.0306Z" fill="black" fill-opacity="0.2"/>
</svg>
