<svg width="47" height="46" viewBox="0 0 47 46" fill="none" xmlns="http://www.w3.org/2000/svg">
<path d="M8.83752 35.3624L9.0819 35.0218L20.6106 13.1516L20.6351 12.9202L15.5535 3.37519C15.4605 3.20065 15.3149 3.05977 15.1374 2.9725C14.9599 2.88523 14.7595 2.85597 14.5645 2.88887C14.3694 2.92178 14.1897 3.01517 14.0507 3.15585C13.9116 3.29652 13.8203 3.47735 13.7897 3.67276L8.83752 35.3624Z" fill="#FFC24A"/>
<path d="M8.98126 35.1038L9.16526 34.7444L20.5747 13.1014L15.5061 3.51902C15.4225 3.35237 15.2872 3.2173 15.1204 3.13403C14.9536 3.05076 14.7643 3.02378 14.5808 3.05713C14.3974 3.09048 14.2297 3.18236 14.1029 3.31902C13.9761 3.45567 13.897 3.62974 13.8774 3.81514L8.98126 35.1038Z" fill="#FFA712"/>
<path d="M24.3395 20.1393L28.123 16.2581L24.3381 9.04037C24.2548 8.88503 24.1309 8.7552 23.9797 8.66468C23.8284 8.57417 23.6555 8.52637 23.4792 8.52637C23.3029 8.52637 23.13 8.57417 22.9787 8.66468C22.8275 8.7552 22.7036 8.88503 22.6203 9.04037L20.5977 12.8957V13.2249L24.3395 20.1393Z" fill="#F4BD62"/>
<path d="M24.2719 19.9811L27.9505 16.2149L24.2719 9.19989C24.2117 9.04804 24.1089 8.91685 23.9758 8.82214C23.8427 8.72743 23.6851 8.67323 23.5219 8.66609C23.3587 8.65895 23.1969 8.69917 23.0561 8.78189C22.9152 8.86462 22.8013 8.98632 22.7281 9.13233L20.6954 13.0553L20.6351 13.2551L24.2719 19.9811Z" fill="#FFA50E"/>
<path d="M8.84039 35.364L8.95108 35.2518L9.35214 35.0894L24.1009 20.3953L24.2878 19.8864L20.6092 12.8743L8.84039 35.364Z" fill="#F6820C"/>
<path d="M24.811 42.7742L38.1625 35.3294L34.3474 11.8536C34.32 11.6881 34.2476 11.5333 34.1381 11.4063C34.0286 11.2793 33.8861 11.1849 33.7265 11.1335C33.5668 11.0821 33.3961 11.0757 33.233 11.115C33.0699 11.1543 32.9208 11.2377 32.8021 11.3562L8.83752 35.3625L22.11 42.7728C22.5226 43.003 22.9873 43.1239 23.4598 43.1239C23.9323 43.1239 24.397 43.003 24.8096 42.7728" fill="#FDE068"/>
<path d="M38.0403 35.2676L34.2568 11.9686C34.2501 11.8103 34.1967 11.6575 34.1031 11.5297C34.0096 11.4018 33.8802 11.3045 33.7314 11.2502C33.5826 11.1959 33.421 11.1869 33.2671 11.2245C33.1132 11.262 32.9739 11.3444 32.8668 11.4611L8.98126 35.3179L22.1071 42.6491C22.5164 42.8775 22.9774 42.9974 23.4461 42.9974C23.9148 42.9974 24.3758 42.8775 24.7851 42.6491L38.0403 35.2676Z" fill="#FCCA3F"/>
<path d="M24.811 42.55C24.3984 42.7802 23.9337 42.9011 23.4612 42.9011C22.9887 42.9011 22.524 42.7802 22.1114 42.55L8.94677 35.2504L8.83752 35.3625L22.11 42.7728C22.5226 43.0031 22.9873 43.1239 23.4598 43.1239C23.9323 43.1239 24.397 43.0031 24.8096 42.7728L38.1625 35.3294L38.1295 35.1282L24.811 42.55Z" fill="#EEAB37"/>
</svg>
